HIERARCHY
ROOT Root
{
	OFFSET 0.00000 0.00000 0.00000
	CHANNELS 6 Xposition Yposition Zposition Zrotation Xrotation Yrotation
	JOINT Hip
	{
		OFFSET 0 0 0	
		CHANNELS 3 Zrotation Xrotation Yrotation
		JOINT Tummy
		{
			OFFSET 0 0.04 0	
			CHANNELS 3 Zrotation Xrotation Yrotation
			JOINT ChestBottom
			{
				OFFSET 0 0.194 0	
				CHANNELS 3 Zrotation Xrotation Yrotation
				JOINT ChestTop
				{
					OFFSET 0 0.166 0	
					CHANNELS 3 Zrotation Xrotation Yrotation
					JOINT LeftCollar
					{
						OFFSET 0 0.1 0	
						CHANNELS 3 Zrotation Xrotation Yrotation
						JOINT LeftUpperArm
						{
							OFFSET 0.156 -0.02 0.03	
							CHANNELS 3 Zrotation Xrotation Yrotation
							JOINT LeftForeArm
							{
								OFFSET 0.035 -0.27 -0.01	
								CHANNELS 3 Zrotation Xrotation Yrotation
								JOINT LeftHand
								{
									OFFSET 0.01 -0.27 0.01	
									CHANNELS 3 Zrotation Xrotation Yrotation
									End Site
									{
										OFFSET 0 -0.15 0
									}
								}
							}
						}
					}
					JOINT RightCollar
					{
						OFFSET 0 0.1 0	
						CHANNELS 3 Zrotation Xrotation Yrotation
						JOINT RightUpperArm
						{
							OFFSET -0.156 -0.02 0.03	
							CHANNELS 3 Zrotation Xrotation Yrotation
							JOINT RightForeArm
							{
								OFFSET -0.035 -0.27 -0.01	
								CHANNELS 3 Zrotation Xrotation Yrotation
								JOINT RightHand
								{
									OFFSET -0.01 -0.27 0.01	
									CHANNELS 3 Zrotation Xrotation Yrotation
									End Site
									{
										OFFSET 0 -0.15 0
									}
								}
							}
						}
					}
					JOINT Neck
					{
						OFFSET 0 0.1 0	
						CHANNELS 3 Zrotation Xrotation Yrotation
						JOINT Head
						{
							OFFSET 0 0.127 0.03	
							CHANNELS 3 Zrotation Xrotation Yrotation
							End Site
							{
								OFFSET 0 0.127 0.03
							}
						}
					}
				}
			}
		}
	}
	JOINT LeftHip
	{
		OFFSET 0 0 0	
		CHANNELS 3 Zrotation Xrotation Yrotation
		JOINT LeftThigh
		{
			OFFSET 0.088 -0.06 0	
			CHANNELS 3 Zrotation Xrotation Yrotation
			JOINT LeftLowerLeg
			{
				OFFSET 0 -0.39 0.02	
				CHANNELS 3 Zrotation Xrotation Yrotation
				JOINT LeftFootTop
				{
					OFFSET 0 -0.43 -0.02	
					CHANNELS 3 Zrotation Xrotation Yrotation
					JOINT LeftFootFront
					{
						OFFSET 0 -0.07 0.085	
						CHANNELS 3 Zrotation Xrotation Yrotation
						End Site
						{
							OFFSET 0 -0.005 0.09
						}
					}
				}
				JOINT LeftHeel
				{
					OFFSET 0 -0.43 -0.02	
					CHANNELS 3 Zrotation Xrotation Yrotation
					End Site
					{
						OFFSET 0 -0.075 -0.05
					}
				}
			}
		}
	}
	JOINT RightHip
	{
		OFFSET 0 0 0	
		CHANNELS 3 Zrotation Xrotation Yrotation
		JOINT RightThigh
		{
			OFFSET -0.088 -0.06 0	
			CHANNELS 3 Zrotation Xrotation Yrotation
			JOINT RightLowerLeg
			{
				OFFSET 0 -0.39 0.02	
				CHANNELS 3 Zrotation Xrotation Yrotation
				JOINT RightFootTop
				{
					OFFSET 0 -0.43 -0.02	
					CHANNELS 3 Zrotation Xrotation Yrotation
					JOINT RightFootFront
					{
						OFFSET 0 -0.07 0.085	
						CHANNELS 3 Zrotation Xrotation Yrotation
						End Site
						{
							OFFSET 0 -0.005 0.09
						}
					}
				}
				JOINT RightHeel
				{
					OFFSET 0 -0.43 -0.02	
					CHANNELS 3 Zrotation Xrotation Yrotation
					End Site
					{
						OFFSET 0 -0.075 -0.05
					}
				}
			}
		}
	}
}
MOTION
Frames: 17
Frame Time: 0.05
-0.16897 0.57031 0.19183 -0 0 -0 5.1967 -30.252 -28.328 4.9147 8.8259 -10.786 4.9147 8.8259 -10.786 4.0113 7.4787 -8.9974 -0 0 -0 13.899 -25.418 22.104 1.0488 -15.845 -12.456 5.6184 -0.22226 -6.7837 -0 0 -0 -70.029 -4.4889 -44.658 -61.071 -23.11 -60.846 5.2303 -5.7983 -13.534 3.6388 -14.547 -44.482 3.6388 -14.547 -44.482 5.1967 -30.252 -28.328 21.253 -14.901 35.06 89.841 58.564 -37.03 -0 0 -0 0 0 -8.5377e-07 -0 0 -0 5.1967 -30.252 -28.328 -10.587 -61.457 20.706 54.115 49.438 -23.077 -0 0 -0 -0 0 -0 -0 0 -0 
-0.16894 0.57232 0.19183 -0 0 -0 4.8879 -31.121 -29.994 5.3558 9.4232 -10.836 5.3558 9.4232 -10.836 4.3723 7.9866 -9.0291 -0 0 -0 13.539 -26.366 23.427 1.0708 -15.516 -12.273 4.4848 1.7135 -5.7238 -0 0 -0 -70.524 -5.43 -45.938 -55.746 -15.001 -59.246 5.2877 -2.0206 -8.0391 3.8618 -15.324 -43.867 3.8618 -15.324 -43.867 4.8879 -31.121 -29.994 21.149 -12.93 35.828 88.824 58.954 -36.244 -0 0 -0 -0 0 1.7075e-06 -0 0 -0 4.8879 -31.121 -29.994 -8.1588 -60.571 23.176 53.856 49.353 -22.777 -0 0 -0 -0 0 -0 -0 0 -0 
-0.16887 0.57485 0.19164 -0 0 -0 4.4111 -32.066 -31.503 5.7749 9.8686 -10.988 5.7749 9.8686 -10.988 4.7155 8.3674 -9.1473 -0 0 -0 13.13 -27.137 24.959 1.1403 -14.667 -11.621 3.5334 3.3824 -5.4556 -0 0 -0 -71.68 -6.002 -46.555 -49.451 -7.6064 -57.325 4.8808 1.3158 -1.5151 4.1378 -16.01 -43.303 4.1378 -16.01 -43.303 4.4111 -32.066 -31.503 20.911 -10.86 36.12 87.591 59.249 -35.247 -0 0 -0 -0 0 8.5377e-07 -0 0 -0 4.4111 -32.066 -31.503 -5.8819 -59.203 25.457 53.177 49.381 -22.195 -0 0 -0 -0 0 -0 -0 0 -0 
-0.16865 0.57793 0.1912 -0 0 -0 3.9793 -33.203 -32.567 6.2093 10.398 -11.295 6.2093 10.398 -11.295 5.0682 8.8204 -9.3944 -0 0 -0 12.637 -28.4 26.074 1.485 -13.79 -10.72 2.9805 5.2127 -5.1752 -0 0 -0 -72.253 -7.0817 -47.269 -42.48 -1.0368 -55.045 3.8032 3.2159 6.6832 4.4285 -16.935 -42.758 4.4285 -16.935 -42.758 3.9793 -33.203 -32.567 20.178 -8.9324 35.541 86.577 59.582 -34.227 -0 0 -0 0 0 -8.5377e-07 -0 0 -0 3.9793 -33.203 -32.567 -4.754 -57.64 26.664 52.266 49.539 -20.899 -0 0 -0 -0 0 -0 -0 0 -0 
-0.16802 0.58157 0.19048 -0 0 -0 3.7305 -34.413 -33.109 6.7492 10.964 -11.673 6.7492 10.964 -11.673 5.5072 9.3061 -9.6979 -0 0 -0 11.863 -30.182 26.923 1.6454 -13.173 -10.087 2.7989 7.0679 -4.2214 -0 0 -0 -72.861 -8.5303 -48.727 -34.874 5.291 -51.329 1.76 2.0968 13.402 4.6559 -18.226 -42.257 4.6559 -18.226 -42.257 3.7305 -34.413 -33.109 19.011 -7.4261 34.344 85.964 59.992 -33.322 -0 0 -0 -0 0 8.5377e-07 -0 0 -0 3.7305 -34.413 -33.109 -4.844 -56.194 26.928 51.71 49.664 -19.99 -0 0 -0 -0 0 -0 -0 0 -0 
-0.16668 0.58589 0.18962 -0 0 -0 3.7114 -35.727 -33.369 7.3341 11.394 -12.061 7.3341 11.394 -12.061 5.9854 9.6798 -10.01 -0 0 -0 10.743 -31.746 27.398 1.4317 -13.073 -9.5704 3.0916 8.9085 -4.1088 -0 0 -0 -73.819 -9.955 -48.825 -27.378 10.719 -51.476 -2.1587 0.60204 24.065 4.6088 -19.593 -41.735 4.6088 -19.593 -41.735 3.7114 -35.727 -33.369 17.607 -6.0994 33.074 85.174 60.571 -32.371 -0 0 -0 -0 0 8.5377e-07 -0 0 -0 3.7114 -35.727 -33.369 -5.518 -54.724 26.911 51.206 49.568 -19.344 -0 0 -0 -0 0 -0 -0 0 -0 
-0.16442 0.59104 0.18886 -0 0 -0 3.7617 -37.16 -33.341 7.9452 11.868 -12.533 7.9452 11.868 -12.533 6.4829 10.091 -10.391 -0 0 -0 9.7425 -33.287 27.999 0.91649 -13.353 -9.4541 3.2537 10.277 -3.7068 -0 0 -0 -73.698 -11.765 -47.754 -20.392 14.714 -52.521 -5.6712 -1.0336 31.777 4.6541 -20.882 -41.014 4.6541 -20.882 -41.014 3.7617 -37.16 -33.341 16.196 -4.8156 32.063 84.094 61.012 -31.573 -0 0 -0 0 0 -8.5377e-07 -0 0 -0 3.7617 -37.16 -33.341 -6.7815 -53.002 26.455 50.479 49.231 -18.477 -0 0 -0 -0 0 -0 -0 0 -0 
-0.16119 0.59709 0.18837 -0 0 -0 4.0483 -38.657 -33.25 8.5754 12.425 -12.97 8.5754 12.425 -12.97 6.9946 10.574 -10.74 -0 0 -0 8.9046 -34.999 28.708 0.23129 -13.682 -9.7338 3.3427 10.779 -3.4388 -0 0 -0 -74.578 -14.365 -46.608 -12.752 19.094 -51.732 -8.8258 -4.2216 36.018 4.9754 -22.164 -40.043 4.9754 -22.164 -40.043 4.0483 -38.657 -33.25 14.624 -3.5207 31.747 82.765 60.818 -30.697 -0 0 -0 -0 0 -0 -0 0 -0 4.0483 -38.657 -33.25 -8.4392 -51.24 25.935 49.709 48.829 -17.454 -0 0 -0 -0 0 -0 -0 0 -0 
-0.15718 0.60378 0.18806 -0 0 -0 4.5881 -40.282 -33.544 9.0293 12.998 -13.19 9.0293 12.998 -13.19 7.3605 11.065 -10.909 -0 0 -0 8.3724 -36.38 29.373 -0.47183 -14.032 -10.311 2.9287 10.71 -3.2453 -0 0 -0 -76.673 -15.448 -47.209 -4.6426 21.424 -53.281 -11.075 -6.8538 45.183 5.3337 -23.413 -39.014 5.3337 -23.413 -39.014 4.5881 -40.282 -33.544 12.705 -1.8035 31.651 80.247 60.62 -28.42 -0 0 -0 -0 0 1.7075e-06 -0 0 -0 4.5881 -40.282 -33.544 -10.265 -49.331 25.577 48.647 48.401 -15.752 -0 0 -0 -0 0 -0 -0 0 -0 
-0.15274 0.6106 0.18748 -0 0 -0 5.4547 -41.884 -33.732 9.2857 13.478 -13.393 9.2857 13.478 -13.393 7.5625 11.475 -11.067 -0 0 -0 8.2019 -37.301 30.034 -1.0887 -14.438 -10.842 2.4194 10.52 -3.2663 -0 0 -0 -78.119 -16.481 -46.875 0.71125 24.057 -54.831 -12.157 -10.489 47.206 6.0051 -24.245 -38.086 6.0051 -24.245 -38.086 5.4547 -41.884 -33.732 10.619 0.054545 31.331 76.473 60.713 -24.874 -0 0 -0 -0 0 -0 -0 0 -0 5.4547 -41.884 -33.732 -12.591 -47.545 24.456 47.285 48.245 -13.875 -0 0 -0 -0 0 -0 -0 0 -0 
-0.14839 0.61697 0.186 -0 0 -0 6.4744 -43.394 -33.741 9.4339 13.741 -13.721 9.4338 13.741 -13.721 7.676 11.703 -11.334 -0 0 -0 8.421 -37.727 31.468 -1.7176 -14.508 -11.663 1.5535 10.616 -3.7454 -0 0 -0 -79.822 -18.423 -46.843 1.3027 25.541 -52.477 -11.52 -10.299 48.315 6.711 -24.743 -37.048 6.711 -24.743 -37.048 6.4744 -43.394 -33.741 8.7301 1.7319 31.431 72.365 60.359 -21.231 -0 0 -0 -0 0 1.2807e-06 -0 0 -0 6.4744 -43.394 -33.741 -14.515 -46.022 23.615 45.981 48.064 -12.74 -0 0 -0 -0 0 -0 -0 0 -0 
-0.14458 0.62256 0.18307 -0 0 -0 7.5626 -44.642 -33.314 9.6061 14.098 -14.105 9.6061 14.098 -14.104 7.8065 12.01 -11.647 -0 0 -0 9.1473 -38.529 32.515 -2.0076 -14.543 -11.621 0.79137 10.729 -4.5759 -0 0 -0 -80.539 -21.237 -45.822 -0.42662 25.059 -51.368 -12.621 -9.4689 44.884 7.4818 -25.514 -35.996 7.4818 -25.514 -35.996 7.5626 -44.642 -33.314 7.0856 2.8945 31.549 68.828 59.516 -18.323 -0 0 -0 0 0 -4.2689e-07 -0 0 -0 7.5626 -44.642 -33.314 -15.821 -44.905 23.526 44.862 47.566 -12.29 -0 0 -0 -0 0 -0 -0 0 -0 
-0.14163 0.6274 0.17842 -0 0 -0 8.8886 -45.585 -32.596 9.8061 14.334 -14.335 9.8061 14.334 -14.335 7.965 12.215 -11.832 -0 0 -0 9.2723 -39.396 32.569 -1.8166 -14.809 -11.362 -0.048089 11.027 -5.1599 -0 0 -0 -80.449 -23.198 -43.582 -1.5791 23.146 -50.979 -13.568 -7.2929 39.808 7.8101 -26.345 -35.416 7.8101 -26.345 -35.416 8.8886 -45.585 -32.596 5.5171 3.5936 31.386 65.721 58.729 -15.538 -0 0 -0 0 0 -8.5377e-07 -0 0 -0 8.8886 -45.585 -32.596 -16.701 -44.218 24.05 43.401 46.973 -11.602 -0 0 -0 -0 0 -0 -0 0 -0 
-0.1398 0.63173 0.17199 -0 0 -0 10.669 -46.207 -31.7 9.9689 14.52 -14.234 9.9689 14.52 -14.234 8.0988 12.373 -11.741 -0 0 -0 8.9285 -40.594 31.999 -1.7358 -15.291 -11.04 -0.32773 11.177 -5.9999 -0 0 -0 -79.969 -25.014 -41.937 -2.677 22.235 -48.573 -14.989 -4.8707 31.381 7.8246 -27.438 -35.109 7.8246 -27.438 -35.109 10.669 -46.207 -31.7 4.0303 3.8848 31.358 62.565 57.95 -12.576 -0 0 -0 -0 0 4.2689e-07 -0 0 -0 10.669 -46.207 -31.7 -17.201 -43.909 24.616 40.941 46.699 -10.096 -0 0 -0 -0 0 2.1344e-07 -0 0 -0 
-0.13914 0.63573 0.16402 -0 0 -0 12.501 -46.68 -30.18 10.25 14.522 -14.399 10.25 14.522 -14.399 8.3316 12.381 -11.874 -0 0 -0 8.3945 -41.331 31.894 -2.0398 -15.931 -10.966 -0.066569 10.846 -6.4883 -0 0 -0 -79.818 -26.713 -41.03 -3.8251 21.9 -44.803 -14.205 -1.1913 21.511 7.649 -28.317 -34.588 7.649 -28.317 -34.588 12.501 -46.68 -30.18 2.9564 4.0105 31.108 59.444 56.982 -9.8263 -0 0 -0 -0 0 8.5377e-07 -0 0 -0 12.501 -46.68 -30.18 -17.978 -43.254 24.199 37.757 46.293 -8.1357 -0 0 -0 -0 0 -0 -0 0 -0 
-0.13928 0.63935 0.15505 -0 0 -0 14.045 -47.242 -28.631 10.59 14.561 -14.728 10.59 14.561 -14.728 8.6097 12.424 -12.143 -0 0 -0 8.2032 -41.767 32.198 -2.6037 -16.44 -11.371 0.16027 9.809 -6.4974 -0 0 -0 -80.614 -28.177 -41.307 -4.167 22.446 -43.287 -13.354 1.6156 11.786 7.5252 -28.933 -33.971 7.5252 -28.933 -33.971 14.045 -47.242 -28.631 2.2386 4.3238 31.141 56.491 55.519 -7.6078 -0 0 -0 0 0 -4.2689e-07 -0 0 -0 14.045 -47.242 -28.631 -18.766 -42.131 23.79 34.626 45.451 -6.0781 -0 0 -0 -4.2689e-07 3.9757e-16 -1.0672e-07 -0 0 -0 
-0.13953 0.64235 0.14584 -0 0 -0 15.314 -48.059 -27.188 10.935 14.632 -15.178 10.935 14.632 -15.178 8.8894 12.496 -12.513 -0 0 -0 8.2766 -41.964 32.66 -2.9408 -16.562 -12.09 -0.0352 8.505 -5.9866 -0 0 -0 -81.862 -29.102 -41.925 -3.3587 22.956 -45.331 -10.826 2.245 4.5862 7.4222 -29.305 -33.369 7.4222 -29.305 -33.369 15.314 -48.059 -27.188 1.5859 5.0308 30.942 53.588 54.136 -5.2804 -0 0 -0 0 0 -8.5377e-07 -0 0 -0 15.314 -48.059 -27.188 -19.495 -40.588 23.672 31.861 44.359 -4.5184 -0 0 -0 -0 0 -0 -0 0 -0 
